<?xml version="1.0" encoding="UTF-8"?>
<svg id="Layer_1" xmlns="http://www.w3.org/2000/svg" width="48" height="48" version="1.1" viewBox="0 0 48 48">
  <!-- Generator: Adobe Illustrator 29.5.1, SVG Export Plug-In . SVG Version: 2.1.0 Build 141)  -->
  <path d="M42.247,18.397c-.035-.27-.08-.532-.134-.791-.016-.078-.035-.153-.054-.226l-.052-.21c-.025-.102-.05-.205-.078-.301-.033-.118-.073-.232-.14-.43l-.038-.112c-.018-.053-.035-.104-.054-.151-.06-.16-.128-.313-.197-.469l-.082-.182c-.079-.164-.164-.322-.253-.478l-.073-.128c-.096-.161-.197-.316-.305-.471l-.064-.089c-.113-.155-.231-.307-.357-.454l-.053-.059c-.131-.148-.266-.291-.457-.473-.118-.111-.236-.223-.364-.324-.479-.386-1.033-.707-1.643-.955l-.165-.07c-.114-.043-.232-.079-.393-.13l-.071-.022c-.071-.023-.142-.045-.215-.065-.119-.031-.238-.056-.369-.084-.113-.024-.225-.047-.339-.065-.114-.019-.228-.033-.342-.046-.13-.015-.26-.027-.396-.037-.111-.007-.224-.011-.333-.014l-.099-.005c-.055-.005-.095-.008-.245.005-.4.006-.738.028-1.063.07-5.137.667-9.089,5.071-10.842,12.068-.197.635-.492,1.559-.785,2.251-.279.655-.585,1.279-.909,1.855-.163.29-.332.568-.507.839-1.905,2.948-4.491,4.681-7.279,4.878-3.126.191-5.299-1.83-5.536-5.154-.022-.321-.033-.641-.032-.963.023-4.599,2.591-9.258,6.416-11.688,1.044,2.305,3.204,3.505,5.954,3.315,1.387-.099,2.546-.513,3.353-1.199.849-.722,1.257-1.687,1.179-2.791-.011-.143-.029-.282-.06-.434l-.019-.072c-.024-.106-.05-.21-.084-.308-.01-.03-.022-.058-.059-.146-.031-.077-.062-.155-.1-.232-.022-.044-.048-.087-.071-.123l-.043-.073c-.029-.051-.058-.101-.091-.151-.035-.052-.075-.101-.112-.147l-.059-.073c-.026-.034-.053-.067-.079-.097-.063-.07-.133-.136-.229-.227l-.062-.059c-.082-.071-.173-.139-.26-.201l-.068-.05c-.099-.068-.206-.132-.359-.218l-.07-.041c-.029-.015-.06-.027-.089-.036-.233-.113-.46-.205-.7-.28l-.137-.038c-.272-.078-.535-.137-.81-.18l-.11-.014c-.315-.044-.62-.071-.941-.082h-.07c-.343-.01-.704-.001-1.067.023-1.075.077-2.122.287-3.117.625-.085-2.467.672-4.862,2.148-6.778,1.544-2.003,3.652-3.196,5.937-3.358,1.289-.097,2.357.143,3.094.684.734.538,1.145,1.36,1.223,2.442.099,1.379-.355,2.82-1.387,4.404l-.449.692,2.076,1.102.377-.586c.467-.731.843-1.464,1.115-2.178.366-.959.562-1.927.582-2.878.005-.24,0-.48-.021-.74-.013-.197-.035-.388-.066-.57-.025-.162-.059-.318-.096-.468l-.019-.084C29.877,1.7,27.958.214,25.206.019l-.164-.005c-.398-.021-.776-.018-1.153.008-2.912.207-5.591,1.691-7.543,4.179-1.94,2.473-2.884,5.587-2.658,8.768.011.148.022.299.037.451-5.18,2.901-8.488,9.089-8.06,15.112.02.287.052.565.093.84.033.219.077.429.133.695l.02.1c.899,3.82,3.817,5.92,7.772,5.607,5.144-.365,9.336-4.541,11.505-11.465l.077-.279c1.446-5.83,4.753-9.628,8.844-10.159,1.539-.202,2.9.145,3.937.998,1.041.856,1.704,2.178,1.917,3.824.528,4.066-.968,8.473-3.905,11.502-.536.554-1.117,1.057-1.732,1.499-1.179-2.242-3.403-3.322-6.137-2.964-1.357.177-2.478.649-3.239,1.363-.832.778-1.196,1.775-1.052,2.883.025.195.074.396.153.634l.034.1c.067.177.15.345.244.498.026.042.054.083.105.156.085.121.18.238.284.348.057.059.117.118.181.174.101.093.212.179.331.263.065.045.131.09.2.132.141.085.286.164.474.244.499.216,1.078.358,1.722.421l.364.021c.144.011.289.021.452.021h.004l.372-.013c.362-.014.693-.04,1.012-.081,1.069-.14,2.101-.41,3.075-.805.078.854.055,1.714-.07,2.56-.63,4.244-3.683,7.545-7.423,8.03-.309.039-.626.058-.95.059l-.078-.006c-.268-.006-.505-.025-.725-.06-.021-.003-.041-.008-.071-.016l-.098-.022c-.227-.046-.4-.092-.542-.143-.034-.013-.067-.028-.104-.043l-.068-.029c-.163-.068-.303-.138-.43-.216-.053-.033-.104-.068-.156-.104-.12-.085-.231-.18-.362-.308-.038-.036-.075-.074-.111-.115-.089-.101-.166-.214-.242-.329l-.053-.079c-.024-.035-.048-.071-.07-.113-.068-.125-.121-.264-.176-.408l-.048-.119c-.013-.03-.026-.06-.036-.091-.075-.244-.126-.482-.158-.729-.178-1.373.19-2.837,1.127-4.477l.408-.717-2.139-.981-.34.608c-1.148,2.05-1.587,3.967-1.341,5.861.043.326.111.645.222,1.031l.024.086c.087.275.196.545.335.826.03.059.058.118.089.174.136.251.289.486.457.702.032.041.065.08.129.155.198.234.389.43.598.606l.122.092c.103.081.205.163.313.234.05.034.105.064.158.092l.05.025c.128.078.26.152.396.219.16.079.326.148.542.231.117.045.234.089.363.129.199.058.409.102.613.142l.105.023c.088.019.176.037.271.052.363.05.703.074,1.071.076.384,0,.789-.027,1.204-.079,5.962-.775,10.28-6.972,9.429-13.533-.018-.143-.038-.288-.062-.433,5.002-3.199,7.945-9.57,7.167-15.557ZM40.328,14.647h0s0,0,0,0h0ZM20.136,12.251h0,0ZM19.995,14.013h.079c.2.004.387.016.565.033l.15.016c.16.02.312.045.448.076l.133.034c.129.034.252.072.358.115l.067.029c.121.054.221.109.324.18.088.063.159.131.223.21.055.07.097.145.134.242.033.089.052.175.058.261.06.849-.88,1.466-2.396,1.574-1.787.138-3.102-.607-3.734-2.096.97-.365,1.922-.583,2.834-.648.266-.019.522-.025.755-.025ZM32.331,32.847c-.949.421-1.887.693-2.793.81-.241.032-.467.051-.69.063-.064.004-.127.006-.26.01-.14.004-.276.007-.405,0-.102-.004-.208-.011-.321-.022-.081-.008-.162-.015-.234-.025-.099-.014-.198-.033-.288-.053l-.117-.032c-.089-.023-.179-.048-.289-.089-.191-.074-.358-.176-.52-.326-.018-.021-.036-.055-.09-.14l-.061-.085c-.04-.085-.068-.179-.08-.277-.109-.845.793-1.516,2.298-1.711.219-.029.446-.044.673-.045,1.461,0,2.555.663,3.179,1.921Z"/>
</svg>