<svg width="37" height="37" viewBox="0 0 37 37" fill="none" xmlns="http://www.w3.org/2000/svg">
    <path d="M0.240234 26.1608C0.240234 32.005 4.99083 36.7472 10.8454 36.7472H25.599C31.4536 36.7472 36.2042 32.005 36.2042 26.1608V11.4335C36.2042 5.58931 31.4536 0.847168 25.599 0.847168H10.8454C4.99083 0.847168 0.240234 5.58931 0.240234 11.4335V26.1608ZM27.9074 7.29247C29.1988 7.29247 30.2158 8.30769 30.2158 9.59675C30.2158 10.8858 29.1988 11.901 27.9074 11.901C26.6161 11.901 25.599 10.8858 25.599 9.59675C25.599 8.30769 26.6161 7.29247 27.9074 7.29247ZM18.2256 10.0509C23.0698 10.0509 26.9841 13.9649 26.9841 18.7938C26.9841 23.6228 23.0631 27.5367 18.2256 27.5367C13.388 27.5367 9.46709 23.6228 9.46709 18.7938C9.46709 13.9649 13.388 10.0509 18.2256 10.0509Z"
          fill="black"/>
    <path d="M24.2148 18.8004C24.2148 22.1065 21.5318 24.7848 18.2197 24.7848C14.9077 24.7848 12.2246 22.1065 12.2246 18.8004C12.2246 15.4942 14.9077 12.8159 18.2197 12.8159C21.5318 12.8159 24.2148 15.4942 24.2148 18.8004Z"
          fill="black"/>
</svg>
