<svg width="38" height="25" viewBox="0 0 38 25" fill="none" xmlns="http://www.w3.org/2000/svg">
    <path d="M3.09678 0.103516C2.72877 0.103516 2.38084 0.176985 2.05967 0.303887L17.8771 14.0962C18.5596 14.6906 19.2889 14.6906 19.9714 14.0962L35.8156 0.303887C35.4945 0.176985 35.1465 0.103516 34.7785 0.103516H3.09678ZM0.333404 2.5013C0.313331 2.6282 0.306641 2.76178 0.306641 2.89536V21.5032C0.306641 23.0461 1.55116 24.2951 3.10347 24.2951H34.7919C36.3375 24.2951 37.5887 23.0528 37.5887 21.5032V2.89536C37.5887 2.76178 37.5754 2.6282 37.562 2.5013L21.8181 16.2067C20.1788 17.6361 17.6965 17.6361 16.0505 16.2067L0.340095 2.5013H0.333404Z"
          fill="black"/>
</svg>
