<svg width="1920" height="172" viewBox="0 0 1920 172" fill="none" xmlns="http://www.w3.org/2000/svg">
<path d="M25.78 0C-29.48 0 -76 56.7 -76 110.5C-76 148.3 -52.74 171.57 -16.39 171.57C40.31 171.57 85.39 114.87 85.39 62.53C85.39 26.17 62.12 0 25.78 0Z" fill="white"/>
<path d="M162.13 0C106.88 0 60.3496 56.7 60.3496 110.5C60.3496 148.3 83.6096 171.57 119.96 171.57C176.66 171.57 221.74 114.87 221.74 62.53C221.74 26.18 198.47 0.01 162.13 0.01V0Z" fill="white"/>
<path d="M298.48 0C243.23 0 196.7 56.7 196.7 110.5C196.7 148.3 219.96 171.57 256.31 171.57C313.01 171.57 358.09 114.87 358.09 62.53C358.09 26.18 334.82 0.01 298.48 0.01V0Z" fill="white"/>
<path d="M434.83 0C379.58 0 333.05 56.7 333.05 110.5C333.05 148.3 356.31 171.57 392.66 171.57C449.36 171.57 494.44 114.87 494.44 62.53C494.44 26.18 471.17 0.01 434.83 0.01V0Z" fill="white"/>
<path d="M571.18 0C515.93 0 469.4 56.7 469.4 110.5C469.4 148.3 492.66 171.57 529.01 171.57C585.71 171.57 630.79 114.87 630.79 62.53C630.79 26.18 607.52 0.01 571.18 0.01V0Z" fill="white"/>
<path d="M707.54 0C652.29 0 605.76 56.7 605.76 110.5C605.76 148.3 629.02 171.57 665.37 171.57C722.07 171.57 767.15 114.87 767.15 62.53C767.15 26.18 743.88 0.01 707.54 0.01V0Z" fill="white"/>
<path d="M843.889 0C788.639 0 742.109 56.7 742.109 110.5C742.109 148.3 765.369 171.57 801.719 171.57C858.419 171.57 903.499 114.87 903.499 62.53C903.499 26.18 880.229 0.01 843.889 0.01V0Z" fill="white"/>
<path d="M980.24 0C924.99 0 878.46 56.7 878.46 110.5C878.46 148.3 901.72 171.57 938.07 171.57C994.77 171.57 1039.85 114.87 1039.85 62.53C1039.85 26.18 1016.58 0.01 980.24 0.01V0Z" fill="white"/>
<path d="M1116.59 0C1061.34 0 1014.81 56.7 1014.81 110.5C1014.81 148.3 1038.07 171.57 1074.42 171.57C1131.12 171.57 1176.2 114.87 1176.2 62.53C1176.2 26.18 1152.93 0.01 1116.59 0.01V0Z" fill="white"/>
<path d="M1252.94 0C1197.69 0 1151.16 56.7 1151.16 110.5C1151.16 148.3 1174.42 171.57 1210.77 171.57C1267.47 171.57 1312.55 114.87 1312.55 62.53C1312.55 26.18 1289.28 0.01 1252.94 0.01V0Z" fill="white"/>
<path d="M1389.3 0C1334.05 0 1287.52 56.7 1287.52 110.5C1287.52 148.3 1310.78 171.57 1347.13 171.57C1403.83 171.57 1448.91 114.87 1448.91 62.53C1448.91 26.18 1425.64 0.01 1389.3 0.01V0Z" fill="white"/>
<path d="M1525.65 0C1470.4 0 1423.87 56.7 1423.87 110.5C1423.87 148.3 1447.13 171.57 1483.48 171.57C1540.18 171.57 1585.26 114.87 1585.26 62.53C1585.26 26.18 1561.99 0.01 1525.65 0.01V0Z" fill="white"/>
<path d="M1662 0C1606.75 0 1560.22 56.7 1560.22 110.5C1560.22 148.3 1583.48 171.57 1619.83 171.57C1676.53 171.57 1721.61 114.87 1721.61 62.53C1721.61 26.18 1698.34 0.01 1662 0.01V0Z" fill="white"/>
<path d="M1798.35 0C1743.1 0 1696.57 56.7 1696.57 110.5C1696.57 148.3 1719.83 171.57 1756.18 171.57C1812.88 171.57 1857.96 114.87 1857.96 62.53C1857.96 26.18 1834.69 0.01 1798.35 0.01V0Z" fill="white"/>
<path d="M1934.71 0C1879.46 0 1832.93 56.7 1832.93 110.5C1832.93 148.3 1856.19 171.57 1892.54 171.57C1949.24 171.57 1994.32 114.87 1994.32 62.53C1994.32 26.18 1971.05 0.01 1934.71 0.01V0Z" fill="white"/>
</svg>
