<?xml version="1.0" encoding="UTF-8"?>
<svg id="Layer_1" xmlns="http://www.w3.org/2000/svg" version="1.1" viewBox="0 0 187.5 101.6">
  <!-- Generator: Adobe Illustrator 29.5.1, SVG Export Plug-In . SVG Version: 2.1.0 Build 141)  -->
  <path d="M13.2,101.6c-9,0-13.2-6.6-13.2-14.9C0,64.7,28.3,21.9,51.6,21.9s12,5.1,12,11.6c0,13.8-18.6,27.9-45.5,34.6l-.5-2.1c26.4-6.7,43.9-19.8,43.9-32.5s-3.1-9.5-9.8-9.5C29.8,23.9,2.2,65.5,2.2,86.7s3.9,12.9,11.1,12.9,22.6-6.9,34-28.8l1.9.9c-11.7,22.4-26.1,30-35.9,30Z"/>
  <path d="M91.4,93.6c0-17.2,41.7-44.9,41.7-63s-1.9-6.6-6.9-6.6-13.8,3.3-21.7,8.6c-1.4,18.6-28.8,68.8-47.3,68.8s-6-2.6-6-6c0-15,26.9-47.7,51.2-63.9v-.3c0-4.9-2.6-7.2-6.3-7.2-7.3,0-18.1,8.9-30.2,28.4l-1.8-1.2c12.5-19.9,23.7-29.3,32-29.3s8.1,2.8,8.5,8.1c8-5,15.6-8.1,21.7-8.1s9.1,3.9,9.1,8.6c0,19-41.7,46.8-41.7,63s2.6,5.9,6,5.9c7.5,0,18.8-10.2,29.8-35.5l1.9.9c-11.4,26-23.1,36.7-31.8,36.7s-8.2-3.1-8.2-8ZM57.1,99.4c16.1,0,42.2-45.7,44.9-65.2-23.1,16.2-48.7,47.2-48.7,61.2s.8,4,3.9,4Z"/>
  <path d="M126.3,90.4c0-9.1,9.9-20.3,30.1-32.4,17-10.3,26.2-18.5,26.2-26.4s-3.5-7.7-8.9-7.7c-10,0-20.7,9.4-32,27.8l-1.8-1c11.8-19.3,23-28.8,33.8-28.8s11.1,3.9,11.1,9.8c0,8.5-9.1,17.1-27.3,28-19.3,11.7-29.1,22.2-29.1,30.7s4,9.1,10.7,9.1c12.5,0,24.9-11.4,36-34.6l1.9.8c-11.6,24.2-24.6,35.9-37.9,35.9s-12.9-4.4-12.9-11.2ZM182.2,0c3.2,0,5.3,2.3,5.3,5.5,0,4.6-4,9.6-9,9.6s-5.3-2.1-5.3-5.4c0-4.8,4.1-9.8,9-9.8ZM178.5,13.2c3.9,0,6.9-4,6.9-7.8s-1.2-3.5-3.2-3.5c-3.7,0-6.9,4-6.9,8s1.2,3.3,3.2,3.3Z"/>
</svg>