<?xml version="1.0" encoding="UTF-8"?>
<svg id="Layer_1" xmlns="http://www.w3.org/2000/svg" width="187.512" height="101.6" version="1.1" viewBox="0 0 187.512 101.6">
  <!-- Generator: Adobe Illustrator 29.5.1, SVG Export Plug-In . SVG Version: 2.1.0 Build 141)  -->
  <path d="M13.247,101.6c-9.003,0-13.247-6.559-13.247-14.919C0,64.69,28.294,21.863,51.572,21.863c7.974,0,11.961,5.144,11.961,11.575,0,13.761-18.648,27.908-45.527,34.596l-.514-2.058c26.365-6.688,43.855-19.806,43.855-32.538,0-5.402-3.087-9.517-9.774-9.517C29.837,23.921,2.186,65.462,2.186,86.682c0,7.845,3.858,12.861,11.06,12.861,8.745,0,22.635-6.945,33.953-28.808l1.929.9c-11.703,22.378-26.107,29.966-35.882,29.966Z"/>
  <path d="M91.441,93.627c0-17.233,41.669-44.884,41.669-63.018,0-3.987-1.929-6.559-6.945-6.559-6.044,0-13.761,3.344-21.735,8.617-1.415,18.648-28.808,68.805-47.328,68.805-3.987,0-6.045-2.572-6.045-6.045,0-15.047,26.879-47.714,51.186-63.918v-.257c0-4.887-2.572-7.202-6.302-7.202-7.331,0-18.134,8.874-30.223,28.422l-1.801-1.157c12.475-19.934,23.664-29.323,32.024-29.323,4.758,0,8.102,2.829,8.488,8.102,7.974-5.016,15.562-8.102,21.735-8.102,6.688,0,9.131,3.858,9.131,8.617,0,19.034-41.669,46.813-41.669,63.018,0,3.73,2.572,5.916,6.045,5.916,7.459,0,18.777-10.16,29.837-35.496l1.929.9c-11.446,25.979-23.15,36.653-31.766,36.653-4.887,0-8.231-3.087-8.231-7.974ZM57.102,99.414c16.076,0,42.183-45.656,44.884-65.204-23.149,16.205-48.742,47.199-48.742,61.217,0,1.929.772,3.987,3.858,3.987Z"/>
  <path d="M126.294,90.412c0-9.131,9.903-20.32,30.094-32.409,16.976-10.289,26.236-18.519,26.236-26.364,0-4.887-3.472-7.716-8.874-7.716-10.032,0-20.706,9.388-32.024,27.779l-1.8-1.029c11.832-19.291,23.021-28.808,33.824-28.808,6.816,0,11.06,3.858,11.06,9.774,0,8.488-9.131,17.105-27.265,28.037-19.291,11.703-29.066,22.249-29.066,30.737,0,5.53,3.987,9.131,10.674,9.131,12.475,0,24.95-11.446,36.01-34.596l1.929.772c-11.575,24.178-24.564,35.882-37.94,35.882-7.974,0-12.861-4.373-12.861-11.189ZM182.239,0c3.215,0,5.273,2.315,5.273,5.53,0,4.63-3.987,9.646-9.003,9.646-3.215,0-5.273-2.058-5.273-5.402,0-4.758,4.115-9.774,9.003-9.774ZM178.509,13.247c3.858,0,6.945-3.987,6.945-7.845,0-2.186-1.157-3.472-3.215-3.472-3.73,0-6.945,3.987-6.945,7.974,0,2.186,1.158,3.344,3.215,3.344Z"/>
</svg>