<?xml version="1.0" encoding="UTF-8"?>
<svg id="Layer_1" xmlns="http://www.w3.org/2000/svg" version="1.1" viewBox="0 0 16 16">
  <!-- Generator: Adobe Illustrator 29.5.1, SVG Export Plug-In . SVG Version: 2.1.0 Build 141)  -->
  <path d="M14,6.1c0,0,0-.2,0-.3,0,0,0,0,0-.1,0,0,0,0,0-.1,0,0,0,0,0-.1,0,0,0,0,0,0,0,0,0-.1,0-.1,0,0,0,0,0,0,0,0,0-.1,0-.2,0,0,0,0,0,0,0,0,0-.1,0-.1,0,0,0,0,0,0,0,0,0,0-.1-.1,0,0,0,0,0,0,0,0,0,0-.1-.1,0,0,0,0,0,0,0,0,0,0-.1-.1-.2-.1-.3-.2-.5-.3,0,0,0,0,0,0,0,0,0,0-.1,0,0,0,0,0,0,0,0,0,0,0-.1,0,0,0,0,0-.1,0,0,0,0,0-.1,0,0,0,0,0-.1,0,0,0,0,0-.1,0,0,0,0,0,0,0s0,0,0,0c-.1,0-.2,0-.3,0-1.7.2-3,1.7-3.6,4h0c0,.3-.2.6-.3.8,0,.2-.2.4-.3.6,0,.1-.1.2-.2.3-.7,1-1.6,1.7-2.6,1.7,0,0,0,0,0,0-1.2,0-2-.7-2.1-1.9,0-.1,0-.2,0-.3,0-1.7,1-3.4,2.4-4.2.3.8,1,1.3,1.9,1.2.9,0,1.4-.5,1.4-1.2,0,0,0,0,0-.1s0,0,0,0c0,0,0,0,0,0,0,0,0,0,0,0,0,0,0,0,0,0,0,0,0,0,0,0,0,0,0,0,0,0,0,0,0,0,0,0,0,0,0,0,0,0,0,0,0,0,0,0,0,0,0,0,0,0,0,0,0,0,0,0,0,0,0,0,0,0,0,0,0,0,0,0,0,0,0,0,0,0,0,0,0,0,0,0,0,0,0,0,0,0,0,0-.1,0-.2,0,0,0,0,0,0,0,0,0-.2,0-.3,0,0,0,0,0,0,0,0,0-.2,0-.3,0,0,0,0,0,0,0-.1,0-.2,0-.3,0-.4,0-.8.1-1.2.3,0,0,0,0,0,0-.1-1.9,1.2-3.6,2.9-3.8,1,0,1.6.4,1.6,1.2,0,.5-.1,1-.5,1.6h0c0,0,.4.3.4.3h0c.2-.3.3-.5.4-.8.1-.3.2-.6.2-.9,0,0,0-.2,0-.2,0,0,0,0,0,0,0,0,0-.1,0-.2,0,0,0,0,0-.1,0,0,0,0,0,0-.2-.7-.8-1.2-1.6-1.3,0,0,0,0,0,0-.1,0-.2,0-.4,0-2,.1-3.5,2.1-3.3,4.2,0,0,0,.2,0,.3-1.8.9-2.9,3-2.8,5,0,0,0,.2,0,.3,0,0,0,.1,0,.2,0,0,0,0,0,0,.3,1.2,1.2,1.9,2.5,1.8,1.7-.1,3.1-1.5,3.8-3.8h0c.5-2.1,1.7-3.5,3.1-3.7,1.2-.2,2,.6,2.2,1.8.2,1.5-.4,3-1.4,4.1-.2.2-.5.5-.8.6-.3-.8-1.1-1.2-2-1.1-.4,0-.8.2-1,.4-.2.2-.3.5-.3.8,0,0,0,.1,0,.2,0,0,0,0,0,0,0,0,0,0,0,.1,0,0,0,0,0,0,0,0,0,0,0,0,0,0,0,0,0,0,0,0,0,0,0,0,0,0,0,0,0,0,0,0,0,0,.1,0,0,0,0,0,0,0,.2,0,.3.1.5.1,0,0,0,0,0,0,0,0,.1,0,.2,0s0,0,0,0c0,0,0,0,0,0,.1,0,.2,0,.3,0,.4,0,.8-.2,1.2-.4,0,0,0,0,0,0,0,.4,0,.7,0,1.1-.2,1.5-1.3,2.7-2.7,2.9,0,0,0,0,0,0-.1,0-.2,0-.3,0,0,0,0,0,0,0,0,0-.2,0-.3,0,0,0,0,0,0,0,0,0-.1,0-.2,0,0,0,0,0,0,0,0,0-.1,0-.2,0,0,0,0,0,0,0,0,0,0,0-.1-.1,0,0,0,0,0,0,0,0,0,0,0-.1,0,0,0,0,0,0,0,0,0-.1,0-.2,0,0,0,0,0,0,0,0,0-.2,0-.3,0-.5,0-1,.4-1.6h0c0,0-.4-.3-.4-.3h0c-.4.7-.5,1.4-.4,2,0,.1,0,.2,0,.3,0,0,0,0,0,0,0,0,0,.2.1.3,0,0,0,0,0,0,0,0,0,.1.1.2,0,0,0,0,0,0,0,0,.1.1.2.2,0,0,0,0,0,0,0,0,0,0,.1,0,0,0,0,0,0,0,0,0,0,0,.1,0,0,0,.1,0,.2,0,0,0,0,0,.1,0,0,0,.1,0,.2,0,0,0,0,0,.1,0,.1,0,.2,0,.3,0,0,0,0,0,0,0s0,0,0,0,0,0,0,0c.1,0,.3,0,.4,0,1.9-.3,3.3-2.3,3.1-4.4,0,0,0-.2,0-.3,1.7-1,2.7-3.2,2.5-5.2ZM9.5,10.2c0,0,.2,0,.3,0,.6,0,1.1.3,1.3.9-.4.2-.8.3-1.1.4,0,0-.2,0-.2,0,0,0,0,0,0,0,0,0-.1,0-.1,0,0,0,0,0-.1,0,0,0,0,0,0,0,0,0,0,0-.1,0,0,0,0,0,0,0,0,0,0,0-.1,0,0,0,0,0,0,0,0,0-.2,0-.2-.1,0,0,0,0,0,0,0,0,0,0,0,0,0,0,0,0,0,0,0,0,0,0,0-.1,0-.4.3-.7.9-.8ZM5.2,4.7c.4-.2.8-.3,1.2-.3,0,0,.2,0,.3,0,0,0,0,0,0,0,0,0,.1,0,.2,0,0,0,0,0,0,0,0,0,.1,0,.2,0,0,0,0,0,0,0,0,0,0,0,.1,0,0,0,0,0,0,0,0,0,0,0,.1,0,0,0,0,0,0,0,0,0,0,0,.1,0,0,0,0,0,0,0,0,0,0,0,0,.1,0,0,0,0,0,0,0,0,0,0,0,.1,0,.4-.4.7-1,.7-.7,0-1.3-.3-1.5-1Z"/>
</svg>